<svg xmlns="http://www.w3.org/2000/svg" xmlns:xlink="http://www.w3.org/1999/xlink" zoomAndPan="magnify" preserveAspectRatio="xMidYMid meet" version="1.0" viewBox="26.81 127.02 325.3 68.3"><defs><g/><clipPath id="9f0c94506c"><path d="M 229.78125 148.1875 L 296.523438 148.1875 L 296.523438 193.421875 L 229.78125 193.421875 Z M 229.78125 148.1875 " clip-rule="nonzero"/></clipPath></defs><g clip-path="url(#9f0c94506c)"><path fill="#00d300" d="M 246.570312 193.414062 L 229.816406 177.066406 L 239.296875 168.152344 L 246.101562 177.40625 C 246.101562 177.40625 267.976562 154.386719 296.484375 148.1875 C 263.972656 164.492188 246.570312 193.414062 246.570312 193.414062 Z M 246.570312 193.414062 " fill-opacity="1" fill-rule="nonzero"/></g><g fill="#000000" fill-opacity="1"><g transform="translate(22.079593, 195.315333)"><g><path d="M 4.734375 -68.296875 L 25.453125 -68.296875 L 34.53125 -23.9375 L 43.609375 -68.296875 L 64.328125 -68.296875 L 64.328125 0 L 52.21875 0 L 52.21875 -61.859375 L 52.125 -61.859375 L 39.15625 0 L 29.890625 0 L 16.9375 -61.765625 L 16.84375 -61.765625 L 16.84375 0 L 4.734375 0 Z M 4.734375 -68.296875 "/></g></g></g><g fill="#000000" fill-opacity="1"><g transform="translate(91.126976, 195.315333)"><g><path d="M 0.46875 0 L 17.78125 -68.296875 L 35.1875 -68.296875 L 50.328125 0 L 36.328125 0 L 33.109375 -17.78125 L 18.453125 -17.78125 L 14.375 0 Z M 20.046875 -27.90625 L 31.5 -27.90625 L 26.296875 -59.6875 Z M 20.046875 -27.90625 "/></g></g></g><g fill="#000000" fill-opacity="1"><g transform="translate(142.108528, 195.315333)"><g><path d="M 17.6875 -68.296875 L 17.6875 -38.6875 L 33.390625 -68.296875 L 48.046875 -68.296875 L 30.75 -38.6875 L 48.625 0 L 34.140625 0 L 22.796875 -27.25 L 17.6875 -20.53125 L 17.6875 0 L 4.734375 0 L 4.734375 -68.296875 Z M 17.6875 -68.296875 "/></g></g></g><g fill="#000000" fill-opacity="1"><g transform="translate(192.806332, 195.315333)"><g><path d="M 4.734375 -68.296875 L 41.25 -68.296875 L 41.25 -57.890625 L 17.6875 -57.890625 L 17.6875 -42 L 39.15625 -42 L 39.15625 -31.59375 L 17.6875 -31.59375 L 17.6875 -10.40625 L 41.25 -10.40625 L 41.25 0 L 4.734375 0 Z M 4.734375 -68.296875 "/></g></g></g><g fill="#000000" fill-opacity="1"><g transform="translate(237.460647, 195.315333)"><g/></g></g><g fill="#000000" fill-opacity="1"><g transform="translate(260.161161, 195.315333)"><g/></g></g><g fill="#000000" fill-opacity="1"><g transform="translate(282.870504, 195.315333)"><g><path d="M 17.6875 -68.296875 L 17.6875 0 L 4.734375 0 L 4.734375 -68.296875 Z M 17.6875 -68.296875 "/></g></g></g><g fill="#000000" fill-opacity="1"><g transform="translate(305.287258, 195.315333)"><g><path d="M 30.75 -57.890625 L 30.75 0 L 17.78125 0 L 17.78125 -57.890625 L 1.703125 -57.890625 L 1.703125 -68.296875 L 46.828125 -68.296875 L 46.828125 -57.890625 Z M 30.75 -57.890625 "/></g></g></g><g fill="#000000" fill-opacity="1"><g transform="translate(353.818327, 195.315333)"><g/></g></g></svg>