<svg xmlns="http://www.w3.org/2000/svg" xmlns:xlink="http://www.w3.org/1999/xlink" zoomAndPan="magnify" preserveAspectRatio="xMidYMid meet" version="1.0" viewBox="60.51 145.46 246.51 51.75"><defs><g/><clipPath id="ea59d85212"><path d="M 211.132812 149.160156 L 278.632812 149.160156 L 278.632812 194.910156 L 211.132812 194.910156 Z M 211.132812 149.160156 " clip-rule="nonzero"/></clipPath></defs><g clip-path="url(#ea59d85212)"><path fill="#00d300" d="M 228.113281 194.898438 L 211.167969 178.363281 L 220.757812 169.351562 L 227.636719 178.710938 C 227.636719 178.710938 249.761719 155.425781 278.59375 149.160156 C 245.714844 165.648438 228.113281 194.898438 228.113281 194.898438 Z M 228.113281 194.898438 " fill-opacity="1" fill-rule="nonzero"/></g><g fill="#ffffff" fill-opacity="1"><g transform="translate(56.929688, 197.214604)"><g><path d="M 3.578125 -51.75 L 19.28125 -51.75 L 26.15625 -18.140625 L 33.046875 -51.75 L 48.734375 -51.75 L 48.734375 0 L 39.5625 0 L 39.5625 -46.875 L 39.484375 -46.875 L 29.671875 0 L 22.640625 0 L 12.828125 -46.796875 L 12.75 -46.796875 L 12.75 0 L 3.578125 0 Z M 3.578125 -51.75 "/></g></g></g><g fill="#ffffff" fill-opacity="1"><g transform="translate(109.250127, 197.214604)"><g><path d="M 0.359375 0 L 13.46875 -51.75 L 26.65625 -51.75 L 38.125 0 L 27.515625 0 L 25.078125 -13.46875 L 13.96875 -13.46875 L 10.890625 0 Z M 15.1875 -21.140625 L 23.859375 -21.140625 L 19.921875 -45.21875 Z M 15.1875 -21.140625 "/></g></g></g><g fill="#ffffff" fill-opacity="1"><g transform="translate(147.881247, 197.214604)"><g><path d="M 13.40625 -51.75 L 13.40625 -29.3125 L 25.296875 -51.75 L 36.40625 -51.75 L 23.296875 -29.3125 L 36.84375 0 L 25.875 0 L 17.265625 -20.640625 L 13.40625 -15.546875 L 13.40625 0 L 3.578125 0 L 3.578125 -51.75 Z M 13.40625 -51.75 "/></g></g></g><g fill="#ffffff" fill-opacity="1"><g transform="translate(186.297355, 197.214604)"><g><path d="M 3.578125 -51.75 L 31.25 -51.75 L 31.25 -43.859375 L 13.40625 -43.859375 L 13.40625 -31.828125 L 29.671875 -31.828125 L 29.671875 -23.9375 L 13.40625 -23.9375 L 13.40625 -7.890625 L 31.25 -7.890625 L 31.25 0 L 3.578125 0 Z M 3.578125 -51.75 "/></g></g></g><g fill="#041632" fill-opacity="1"><g transform="translate(220.136713, 197.214604)"><g/></g></g><g fill="#041632" fill-opacity="1"><g transform="translate(237.33796, 197.214604)"><g/></g></g><g fill="#ffffff" fill-opacity="1"><g transform="translate(254.54296, 197.214604)"><g><path d="M 13.40625 -51.75 L 13.40625 0 L 3.578125 0 L 3.578125 -51.75 Z M 13.40625 -51.75 "/></g></g></g><g fill="#ffffff" fill-opacity="1"><g transform="translate(271.529184, 197.214604)"><g><path d="M 23.296875 -43.859375 L 23.296875 0 L 13.46875 0 L 13.46875 -43.859375 L 1.296875 -43.859375 L 1.296875 -51.75 L 35.484375 -51.75 L 35.484375 -43.859375 Z M 23.296875 -43.859375 "/></g></g></g><g fill="#041632" fill-opacity="1"><g transform="translate(308.296859, 197.214604)"><g/></g></g></svg>