<svg xmlns="http://www.w3.org/2000/svg" xmlns:xlink="http://www.w3.org/1999/xlink" width="500" zoomAndPan="magnify" viewBox="0 0 375 374.999991" height="500" preserveAspectRatio="xMidYMid meet" version="1.0"><defs><g/><clipPath id="bf6b0fc4a2"><path d="M 69.203125 92 L 305.796875 92 L 305.796875 332.066406 L 69.203125 332.066406 Z M 69.203125 92 " clip-rule="nonzero"/></clipPath><clipPath id="eef6a120a9"><path d="M 211.9375 100.453125 L 288.203125 158.714844 C 302.886719 169.929688 309.015625 189.109375 303.5625 206.761719 L 273.917969 302.6875 C 268.523438 320.152344 252.375 332.066406 234.089844 332.066406 L 140.910156 332.066406 C 122.625 332.066406 106.476562 320.152344 101.082031 302.6875 L 71.4375 206.761719 C 65.984375 189.109375 72.113281 169.929688 86.796875 158.714844 L 163.0625 100.453125 C 177.492188 89.429688 197.507812 89.429688 211.9375 100.453125 Z M 211.9375 100.453125 " clip-rule="nonzero"/></clipPath><clipPath id="ca8ec0d68f"><path d="M 69 92 L 306 92 L 306 332.0625 L 69 332.0625 Z M 69 92 " clip-rule="nonzero"/></clipPath><clipPath id="a59bfefaec"><path d="M 211.933594 100.449219 L 288.203125 158.714844 C 302.882812 169.929688 309.011719 189.109375 303.558594 206.761719 L 273.917969 302.683594 C 268.519531 320.148438 252.371094 332.0625 234.089844 332.0625 L 140.90625 332.0625 C 122.625 332.0625 106.476562 320.148438 101.078125 302.683594 L 71.4375 206.761719 C 65.984375 189.109375 72.113281 169.929688 86.792969 158.714844 L 163.0625 100.449219 C 177.488281 89.429688 197.507812 89.429688 211.933594 100.449219 Z M 211.933594 100.449219 " clip-rule="nonzero"/></clipPath><clipPath id="08a08d798d"><path d="M 112.238281 206.925781 L 262.761719 206.925781 L 262.761719 319.425781 L 112.238281 319.425781 Z M 112.238281 206.925781 " clip-rule="nonzero"/></clipPath><clipPath id="13efcebb98"><path d="M 56.128906 206.925781 L 318.871094 206.925781 L 318.871094 354.910156 L 56.128906 354.910156 Z M 56.128906 206.925781 " clip-rule="nonzero"/></clipPath><clipPath id="e12b986ded"><path d="M 144.894531 134.105469 L 225.832031 134.105469 L 225.832031 194.105469 L 144.894531 194.105469 Z M 144.894531 134.105469 " clip-rule="nonzero"/></clipPath></defs><g clip-path="url(#bf6b0fc4a2)"><g clip-path="url(#eef6a120a9)"><path fill="#ffffff" d="M 62.359375 81.785156 L 312.640625 81.785156 L 312.640625 332.066406 L 62.359375 332.066406 Z M 62.359375 81.785156 " fill-opacity="1" fill-rule="nonzero"/></g></g><g clip-path="url(#ca8ec0d68f)"><g clip-path="url(#a59bfefaec)"><path stroke-linecap="butt" transform="matrix(0.75, 0, 0, 0.75, 62.359366, 81.784161)" fill="none" stroke-linejoin="miter" d="M 199.432317 24.886745 L 301.125032 102.57425 C 320.69795 117.527376 328.869825 143.100295 321.598991 166.636755 L 282.078156 294.532596 C 274.880238 317.819056 253.348987 333.704474 228.973985 333.704474 L 104.729186 333.704474 C 80.354184 333.704474 58.822933 317.819056 51.625015 294.532596 L 12.104179 166.636755 C 4.833346 143.100295 13.005221 117.527376 32.578139 102.57425 L 134.270854 24.886745 C 153.50523 10.194036 180.19794 10.194036 199.432317 24.886745 Z M 199.432317 24.886745 " stroke="#d3dde4" stroke-width="32" stroke-opacity="1" stroke-miterlimit="4"/></g></g><g clip-path="url(#08a08d798d)"><path fill="#ffffff" d="M 112.238281 206.925781 L 262.972656 206.925781 L 262.972656 319.425781 L 112.238281 319.425781 Z M 112.238281 206.925781 " fill-opacity="1" fill-rule="nonzero"/></g><g clip-path="url(#13efcebb98)"><path fill="#ffffff" d="M 56.128906 206.925781 L 319.148438 206.925781 L 319.148438 354.910156 L 56.128906 354.910156 Z M 56.128906 206.925781 " fill-opacity="1" fill-rule="nonzero"/></g><g clip-path="url(#e12b986ded)"><path fill="#235476" d="M 150.015625 158.296875 C 148.625 163.113281 147.425781 165.089844 147.402344 171.011719 C 147.390625 176.183594 147.414062 181.359375 147.40625 186.542969 C 147.398438 193.464844 147.886719 194.359375 154.976562 194.382812 C 162.3125 194.40625 161.425781 191.660156 161.453125 185.1875 L 209.460938 185.144531 C 209.515625 191.382812 208.660156 194.40625 215.632812 194.382812 C 225.585938 194.359375 223.503906 192.523438 223.511719 171.363281 C 223.515625 165.652344 222.488281 163.003906 220.878906 158.296875 C 225.585938 158.132812 231.277344 147.289062 217.074219 149.507812 C 216.324219 147.164062 215.300781 144.957031 214.316406 142.65625 C 213.082031 139.746094 212.992188 138.785156 211 136.761719 C 209.3125 135.039062 206.898438 134.324219 204.183594 134.175781 L 202.957031 134.105469 L 166.375 134.222656 C 159.597656 134.28125 158.171875 138.964844 156.402344 143.121094 C 155.710938 144.734375 154.515625 148.34375 153.542969 149.4375 C 139.871094 147.378906 145.382812 158.121094 150.015625 158.296875 Z M 166.308594 175.75 L 166.308594 168.585938 L 204.671875 168.585938 L 204.671875 175.75 Z M 161.042969 173.308594 C 161.042969 175.667969 159.109375 177.589844 156.714844 177.589844 C 154.324219 177.589844 152.382812 175.671875 152.382812 173.308594 C 152.382812 170.945312 154.324219 169.011719 156.714844 169.011719 C 159.109375 169.011719 161.042969 170.945312 161.042969 173.308594 Z M 218.601562 173.308594 C 218.601562 175.667969 216.65625 177.589844 214.269531 177.589844 C 211.871094 177.589844 209.933594 175.671875 209.933594 173.308594 C 209.933594 170.945312 211.871094 169.011719 214.269531 169.011719 C 216.65625 169.011719 218.601562 170.945312 218.601562 173.308594 Z M 166.84375 137.75 C 169.5 137.070312 182.558594 137.523438 186.378906 137.523438 C 205.796875 137.523438 205.652344 135.546875 209.332031 144.417969 C 210.292969 146.75 211.304688 149.132812 212.242188 151.429688 C 213.007812 153.335938 215.484375 157.300781 213.554688 158.722656 C 212.121094 159.773438 168.339844 159.203125 164.25 159.203125 C 154.898438 159.203125 155.277344 159.585938 159.203125 150.117188 C 161.472656 144.625 162.8125 138.789062 166.84375 137.75 " fill-opacity="1" fill-rule="evenodd"/></g><g fill="#041632" fill-opacity="1"><g transform="translate(69.197421, 297.249472)"><g><path d="M 11.203125 -14.59375 L 11.203125 0 L 8.421875 0 L 8.421875 -1.375 L 8.390625 -1.375 C 8.054688 -0.769531 7.597656 -0.34375 7.015625 -0.09375 C 6.441406 0.15625 5.859375 0.28125 5.265625 0.28125 C 4.460938 0.28125 3.769531 0.117188 3.1875 -0.203125 C 2.613281 -0.523438 2.144531 -0.957031 1.78125 -1.5 C 1.414062 -2.050781 1.144531 -2.675781 0.96875 -3.375 C 0.789062 -4.070312 0.703125 -4.789062 0.703125 -5.53125 C 0.703125 -6.78125 0.910156 -7.816406 1.328125 -8.640625 C 1.742188 -9.460938 2.296875 -10.078125 2.984375 -10.484375 C 3.671875 -10.890625 4.410156 -11.09375 5.203125 -11.09375 C 5.828125 -11.09375 6.335938 -11 6.734375 -10.8125 C 7.140625 -10.625 7.46875 -10.398438 7.71875 -10.140625 C 7.976562 -9.878906 8.179688 -9.632812 8.328125 -9.40625 L 8.359375 -9.40625 L 8.359375 -14.59375 Z M 6.046875 -8.640625 C 5.441406 -8.640625 4.960938 -8.484375 4.609375 -8.171875 C 4.253906 -7.859375 4 -7.445312 3.84375 -6.9375 C 3.695312 -6.4375 3.625 -5.898438 3.625 -5.328125 C 3.625 -5.003906 3.660156 -4.65625 3.734375 -4.28125 C 3.804688 -3.90625 3.929688 -3.546875 4.109375 -3.203125 C 4.296875 -2.859375 4.535156 -2.578125 4.828125 -2.359375 C 5.128906 -2.148438 5.507812 -2.046875 5.96875 -2.046875 C 6.570312 -2.046875 7.054688 -2.191406 7.421875 -2.484375 C 7.796875 -2.785156 8.066406 -3.171875 8.234375 -3.640625 C 8.398438 -4.117188 8.484375 -4.628906 8.484375 -5.171875 C 8.484375 -5.742188 8.414062 -6.296875 8.28125 -6.828125 C 8.144531 -7.359375 7.898438 -7.789062 7.546875 -8.125 C 7.203125 -8.46875 6.703125 -8.640625 6.046875 -8.640625 Z M 6.046875 -8.640625 "/></g></g></g><g fill="#041632" fill-opacity="1"><g transform="translate(89.248888, 297.249472)"><g><path d="M 1.203125 -10.8125 L 3.9375 -10.8125 L 3.9375 -8.953125 L 3.984375 -8.953125 C 4.179688 -9.304688 4.394531 -9.648438 4.625 -9.984375 C 4.863281 -10.316406 5.164062 -10.582031 5.53125 -10.78125 C 5.894531 -10.988281 6.363281 -11.09375 6.9375 -11.09375 C 7 -11.09375 7.09375 -11.085938 7.21875 -11.078125 C 7.351562 -11.078125 7.445312 -11.070312 7.5 -11.0625 L 7.5 -8.171875 C 7.25 -8.203125 6.972656 -8.21875 6.671875 -8.21875 C 5.929688 -8.21875 5.375 -8.085938 5 -7.828125 C 4.625 -7.578125 4.367188 -7.253906 4.234375 -6.859375 C 4.109375 -6.472656 4.046875 -6.078125 4.046875 -5.671875 L 4.046875 0 L 1.203125 0 Z M 1.203125 -10.8125 "/></g></g></g><g fill="#041632" fill-opacity="1"><g transform="translate(104.715407, 297.249472)"><g><path d="M 4.046875 -10.8125 L 4.046875 0 L 1.203125 0 L 1.203125 -10.8125 Z M 4.046875 -14.71875 L 4.046875 -12.078125 L 1.203125 -12.078125 L 1.203125 -14.71875 Z M 4.046875 -14.71875 "/></g></g></g><g fill="#041632" fill-opacity="1"><g transform="translate(117.607922, 297.249472)"><g><path d="M 0.265625 -10.8125 L 3.296875 -10.8125 L 5.59375 -2.828125 L 5.625 -2.828125 L 8 -10.8125 L 11.046875 -10.8125 L 7.140625 0 L 4.140625 0 Z M 0.265625 -10.8125 "/></g></g></g><g fill="#041632" fill-opacity="1"><g transform="translate(136.553364, 297.249472)"><g><path d="M 4.046875 -10.8125 L 4.046875 0 L 1.203125 0 L 1.203125 -10.8125 Z M 4.046875 -14.71875 L 4.046875 -12.078125 L 1.203125 -12.078125 L 1.203125 -14.71875 Z M 4.046875 -14.71875 "/></g></g></g><g fill="#041632" fill-opacity="1"><g transform="translate(149.445876, 297.249472)"><g><path d="M 1.203125 -10.8125 L 3.921875 -10.8125 L 3.921875 -9.234375 L 3.96875 -9.234375 C 4.09375 -9.441406 4.273438 -9.691406 4.515625 -9.984375 C 4.765625 -10.285156 5.101562 -10.546875 5.53125 -10.765625 C 5.96875 -10.984375 6.53125 -11.09375 7.21875 -11.09375 C 7.925781 -11.09375 8.5625 -10.957031 9.125 -10.6875 C 9.6875 -10.414062 10.128906 -10.007812 10.453125 -9.46875 C 10.785156 -8.9375 10.953125 -8.273438 10.953125 -7.484375 L 10.953125 0 L 8.125 0 L 8.125 -6.578125 C 8.125 -6.773438 8.109375 -6.992188 8.078125 -7.234375 C 8.054688 -7.472656 7.988281 -7.703125 7.875 -7.921875 C 7.757812 -8.148438 7.578125 -8.335938 7.328125 -8.484375 C 7.078125 -8.628906 6.726562 -8.703125 6.28125 -8.703125 C 5.644531 -8.703125 5.113281 -8.488281 4.6875 -8.0625 C 4.257812 -7.644531 4.046875 -7.019531 4.046875 -6.1875 L 4.046875 0 L 1.203125 0 Z M 1.203125 -10.8125 "/></g></g></g><g fill="#041632" fill-opacity="1"><g transform="translate(169.256027, 297.249472)"><g><path d="M 8.484375 -10.8125 L 11.203125 -10.8125 L 11.203125 -0.578125 C 11.203125 -0.203125 11.179688 0.207031 11.140625 0.65625 C 11.097656 1.113281 10.984375 1.566406 10.796875 2.015625 C 10.617188 2.460938 10.335938 2.878906 9.953125 3.265625 C 9.578125 3.648438 9.046875 3.957031 8.359375 4.1875 C 7.679688 4.414062 6.8125 4.53125 5.75 4.53125 C 5.007812 4.53125 4.285156 4.414062 3.578125 4.1875 C 2.867188 3.957031 2.28125 3.601562 1.8125 3.125 C 1.34375 2.644531 1.085938 2.023438 1.046875 1.265625 L 4.125 1.265625 C 4.164062 1.441406 4.234375 1.613281 4.328125 1.78125 C 4.429688 1.957031 4.613281 2.097656 4.875 2.203125 C 5.144531 2.316406 5.554688 2.375 6.109375 2.375 C 6.878906 2.375 7.46875 2.15625 7.875 1.71875 C 8.28125 1.289062 8.484375 0.648438 8.484375 -0.203125 L 8.484375 -1.546875 L 8.40625 -1.546875 C 8.257812 -1.273438 8.050781 -0.992188 7.78125 -0.703125 C 7.507812 -0.421875 7.179688 -0.1875 6.796875 0 C 6.421875 0.1875 5.976562 0.28125 5.46875 0.28125 C 4.59375 0.28125 3.789062 0.0625 3.0625 -0.375 C 2.34375 -0.8125 1.769531 -1.457031 1.34375 -2.3125 C 0.914062 -3.164062 0.703125 -4.222656 0.703125 -5.484375 C 0.703125 -6.734375 0.914062 -7.773438 1.34375 -8.609375 C 1.769531 -9.441406 2.335938 -10.0625 3.046875 -10.46875 C 3.753906 -10.882812 4.5 -11.09375 5.28125 -11.09375 C 5.957031 -11.09375 6.503906 -10.984375 6.921875 -10.765625 C 7.347656 -10.554688 7.679688 -10.304688 7.921875 -10.015625 C 8.160156 -9.722656 8.335938 -9.453125 8.453125 -9.203125 L 8.484375 -9.203125 Z M 6.046875 -8.640625 C 5.441406 -8.640625 4.960938 -8.484375 4.609375 -8.171875 C 4.253906 -7.859375 4 -7.445312 3.84375 -6.9375 C 3.695312 -6.4375 3.625 -5.898438 3.625 -5.328125 C 3.625 -5.003906 3.660156 -4.65625 3.734375 -4.28125 C 3.804688 -3.90625 3.929688 -3.546875 4.109375 -3.203125 C 4.296875 -2.859375 4.535156 -2.578125 4.828125 -2.359375 C 5.128906 -2.148438 5.507812 -2.046875 5.96875 -2.046875 C 6.570312 -2.046875 7.054688 -2.191406 7.421875 -2.484375 C 7.796875 -2.785156 8.066406 -3.171875 8.234375 -3.640625 C 8.398438 -4.117188 8.484375 -4.628906 8.484375 -5.171875 C 8.484375 -5.742188 8.414062 -6.296875 8.28125 -6.828125 C 8.144531 -7.359375 7.898438 -7.789062 7.546875 -8.125 C 7.203125 -8.46875 6.703125 -8.640625 6.046875 -8.640625 Z M 6.046875 -8.640625 "/></g></g></g><g fill="#041632" fill-opacity="1"><g transform="translate(189.307494, 297.249472)"><g/></g></g><g fill="#041632" fill-opacity="1"><g transform="translate(202.58209, 297.249472)"><g><path d="M 10.296875 -7.515625 L 7.515625 -7.515625 C 7.472656 -7.742188 7.398438 -7.96875 7.296875 -8.1875 C 7.203125 -8.414062 7.023438 -8.597656 6.765625 -8.734375 C 6.515625 -8.878906 6.128906 -8.953125 5.609375 -8.953125 C 5.097656 -8.953125 4.710938 -8.894531 4.453125 -8.78125 C 4.203125 -8.664062 4.039062 -8.523438 3.96875 -8.359375 C 3.894531 -8.203125 3.859375 -8.046875 3.859375 -7.890625 C 3.859375 -7.597656 4.019531 -7.375 4.34375 -7.21875 C 4.675781 -7.070312 5.097656 -6.945312 5.609375 -6.84375 C 6.117188 -6.75 6.660156 -6.640625 7.234375 -6.515625 C 7.816406 -6.390625 8.359375 -6.210938 8.859375 -5.984375 C 9.367188 -5.765625 9.789062 -5.453125 10.125 -5.046875 C 10.457031 -4.640625 10.625 -4.101562 10.625 -3.4375 C 10.625 -2.644531 10.457031 -2.003906 10.125 -1.515625 C 9.789062 -1.023438 9.375 -0.648438 8.875 -0.390625 C 8.382812 -0.128906 7.867188 0.046875 7.328125 0.140625 C 6.796875 0.234375 6.316406 0.28125 5.890625 0.28125 C 5.273438 0.28125 4.660156 0.21875 4.046875 0.09375 C 3.441406 -0.0195312 2.882812 -0.21875 2.375 -0.5 C 1.875 -0.789062 1.46875 -1.175781 1.15625 -1.65625 C 0.851562 -2.132812 0.703125 -2.734375 0.703125 -3.453125 L 3.625 -3.453125 C 3.625 -3.003906 3.789062 -2.628906 4.125 -2.328125 C 4.457031 -2.023438 5.070312 -1.875 5.96875 -1.875 C 6.46875 -1.875 6.84375 -1.9375 7.09375 -2.0625 C 7.351562 -2.195312 7.53125 -2.351562 7.625 -2.53125 C 7.726562 -2.707031 7.78125 -2.863281 7.78125 -3 C 7.78125 -3.300781 7.617188 -3.53125 7.296875 -3.6875 C 6.972656 -3.84375 6.554688 -3.96875 6.046875 -4.0625 C 5.535156 -4.164062 4.992188 -4.273438 4.421875 -4.390625 C 3.859375 -4.515625 3.320312 -4.6875 2.8125 -4.90625 C 2.300781 -5.132812 1.882812 -5.453125 1.5625 -5.859375 C 1.238281 -6.265625 1.078125 -6.804688 1.078125 -7.484375 C 1.078125 -7.878906 1.148438 -8.285156 1.296875 -8.703125 C 1.441406 -9.128906 1.675781 -9.523438 2 -9.890625 C 2.332031 -10.253906 2.78125 -10.546875 3.34375 -10.765625 C 3.90625 -10.984375 4.609375 -11.09375 5.453125 -11.09375 C 5.972656 -11.09375 6.507812 -11.050781 7.0625 -10.96875 C 7.613281 -10.882812 8.125 -10.710938 8.59375 -10.453125 C 9.0625 -10.203125 9.445312 -9.84375 9.75 -9.375 C 10.0625 -8.90625 10.242188 -8.285156 10.296875 -7.515625 Z M 10.296875 -7.515625 "/></g></g></g><g fill="#041632" fill-opacity="1"><g transform="translate(221.54765, 297.249472)"><g><path d="M 7.765625 -3.9375 L 10.625 -3.9375 C 10.59375 -3.726562 10.53125 -3.441406 10.4375 -3.078125 C 10.34375 -2.722656 10.1875 -2.351562 9.96875 -1.96875 C 9.757812 -1.59375 9.472656 -1.226562 9.109375 -0.875 C 8.742188 -0.53125 8.28125 -0.25 7.71875 -0.03125 C 7.15625 0.175781 6.476562 0.28125 5.6875 0.28125 C 4.664062 0.28125 3.832031 0.109375 3.1875 -0.234375 C 2.539062 -0.578125 2.035156 -1.019531 1.671875 -1.5625 C 1.304688 -2.101562 1.050781 -2.6875 0.90625 -3.3125 C 0.769531 -3.945312 0.703125 -4.546875 0.703125 -5.109375 C 0.703125 -6.273438 0.878906 -7.304688 1.234375 -8.203125 C 1.585938 -9.097656 2.144531 -9.800781 2.90625 -10.3125 C 3.664062 -10.832031 4.65625 -11.09375 5.875 -11.09375 C 6.300781 -11.09375 6.769531 -11.03125 7.28125 -10.90625 C 7.800781 -10.789062 8.304688 -10.582031 8.796875 -10.28125 C 9.285156 -9.976562 9.695312 -9.554688 10.03125 -9.015625 C 10.363281 -8.484375 10.566406 -7.796875 10.640625 -6.953125 L 7.765625 -6.953125 C 7.722656 -7.191406 7.632812 -7.445312 7.5 -7.71875 C 7.375 -7.988281 7.1875 -8.21875 6.9375 -8.40625 C 6.6875 -8.601562 6.332031 -8.703125 5.875 -8.703125 C 5.269531 -8.703125 4.804688 -8.535156 4.484375 -8.203125 C 4.160156 -7.867188 3.9375 -7.457031 3.8125 -6.96875 C 3.6875 -6.488281 3.625 -6.019531 3.625 -5.5625 C 3.625 -5.269531 3.640625 -4.925781 3.671875 -4.53125 C 3.703125 -4.132812 3.78125 -3.742188 3.90625 -3.359375 C 4.039062 -2.984375 4.253906 -2.671875 4.546875 -2.421875 C 4.847656 -2.171875 5.269531 -2.046875 5.8125 -2.046875 C 6.289062 -2.046875 6.675781 -2.171875 6.96875 -2.421875 C 7.257812 -2.671875 7.460938 -2.945312 7.578125 -3.25 C 7.703125 -3.550781 7.765625 -3.78125 7.765625 -3.9375 Z M 7.765625 -3.9375 "/></g></g></g><g fill="#041632" fill-opacity="1"><g transform="translate(240.533317, 297.249472)"><g><path d="M 4.046875 -14.59375 L 4.046875 -9.40625 L 4.078125 -9.40625 C 4.265625 -9.851562 4.640625 -10.242188 5.203125 -10.578125 C 5.765625 -10.921875 6.4375 -11.09375 7.21875 -11.09375 C 7.925781 -11.09375 8.5625 -10.957031 9.125 -10.6875 C 9.6875 -10.414062 10.128906 -10.007812 10.453125 -9.46875 C 10.785156 -8.9375 10.953125 -8.273438 10.953125 -7.484375 L 10.953125 0 L 8.125 0 L 8.125 -6.578125 C 8.125 -6.773438 8.109375 -6.992188 8.078125 -7.234375 C 8.054688 -7.472656 7.988281 -7.703125 7.875 -7.921875 C 7.757812 -8.148438 7.578125 -8.335938 7.328125 -8.484375 C 7.078125 -8.628906 6.726562 -8.703125 6.28125 -8.703125 C 5.644531 -8.703125 5.113281 -8.488281 4.6875 -8.0625 C 4.257812 -7.644531 4.046875 -7.019531 4.046875 -6.1875 L 4.046875 0 L 1.203125 0 L 1.203125 -14.59375 Z M 4.046875 -14.59375 "/></g></g></g><g fill="#041632" fill-opacity="1"><g transform="translate(260.343462, 297.249472)"><g><path d="M 6.234375 -11.09375 C 7.203125 -11.09375 8.101562 -10.890625 8.9375 -10.484375 C 9.78125 -10.085938 10.457031 -9.46875 10.96875 -8.625 C 11.488281 -7.789062 11.75 -6.722656 11.75 -5.421875 C 11.75 -4.128906 11.488281 -3.054688 10.96875 -2.203125 C 10.457031 -1.359375 9.78125 -0.734375 8.9375 -0.328125 C 8.101562 0.078125 7.203125 0.28125 6.234375 0.28125 C 5.265625 0.28125 4.359375 0.078125 3.515625 -0.328125 C 2.679688 -0.734375 2.003906 -1.351562 1.484375 -2.1875 C 0.960938 -3.03125 0.703125 -4.101562 0.703125 -5.40625 C 0.703125 -6.707031 0.960938 -7.773438 1.484375 -8.609375 C 2.003906 -9.453125 2.679688 -10.078125 3.515625 -10.484375 C 4.359375 -10.890625 5.265625 -11.09375 6.234375 -11.09375 Z M 6.234375 -8.703125 C 5.679688 -8.703125 5.234375 -8.597656 4.890625 -8.390625 C 4.554688 -8.179688 4.296875 -7.910156 4.109375 -7.578125 C 3.921875 -7.253906 3.789062 -6.898438 3.71875 -6.515625 C 3.65625 -6.140625 3.625 -5.773438 3.625 -5.421875 C 3.625 -5.078125 3.65625 -4.710938 3.71875 -4.328125 C 3.789062 -3.953125 3.921875 -3.59375 4.109375 -3.25 C 4.296875 -2.914062 4.554688 -2.640625 4.890625 -2.421875 C 5.234375 -2.210938 5.679688 -2.109375 6.234375 -2.109375 C 6.785156 -2.109375 7.226562 -2.210938 7.5625 -2.421875 C 7.90625 -2.628906 8.164062 -2.898438 8.34375 -3.234375 C 8.53125 -3.566406 8.65625 -3.925781 8.71875 -4.3125 C 8.789062 -4.695312 8.828125 -5.0625 8.828125 -5.40625 C 8.828125 -5.757812 8.789062 -6.125 8.71875 -6.5 C 8.65625 -6.882812 8.53125 -7.242188 8.34375 -7.578125 C 8.164062 -7.910156 7.90625 -8.179688 7.5625 -8.390625 C 7.226562 -8.597656 6.785156 -8.703125 6.234375 -8.703125 Z M 6.234375 -8.703125 "/></g></g></g><g fill="#041632" fill-opacity="1"><g transform="translate(280.435154, 297.249472)"><g><path d="M 6.234375 -11.09375 C 7.203125 -11.09375 8.101562 -10.890625 8.9375 -10.484375 C 9.78125 -10.085938 10.457031 -9.46875 10.96875 -8.625 C 11.488281 -7.789062 11.75 -6.722656 11.75 -5.421875 C 11.75 -4.128906 11.488281 -3.054688 10.96875 -2.203125 C 10.457031 -1.359375 9.78125 -0.734375 8.9375 -0.328125 C 8.101562 0.078125 7.203125 0.28125 6.234375 0.28125 C 5.265625 0.28125 4.359375 0.078125 3.515625 -0.328125 C 2.679688 -0.734375 2.003906 -1.351562 1.484375 -2.1875 C 0.960938 -3.03125 0.703125 -4.101562 0.703125 -5.40625 C 0.703125 -6.707031 0.960938 -7.773438 1.484375 -8.609375 C 2.003906 -9.453125 2.679688 -10.078125 3.515625 -10.484375 C 4.359375 -10.890625 5.265625 -11.09375 6.234375 -11.09375 Z M 6.234375 -8.703125 C 5.679688 -8.703125 5.234375 -8.597656 4.890625 -8.390625 C 4.554688 -8.179688 4.296875 -7.910156 4.109375 -7.578125 C 3.921875 -7.253906 3.789062 -6.898438 3.71875 -6.515625 C 3.65625 -6.140625 3.625 -5.773438 3.625 -5.421875 C 3.625 -5.078125 3.65625 -4.710938 3.71875 -4.328125 C 3.789062 -3.953125 3.921875 -3.59375 4.109375 -3.25 C 4.296875 -2.914062 4.554688 -2.640625 4.890625 -2.421875 C 5.234375 -2.210938 5.679688 -2.109375 6.234375 -2.109375 C 6.785156 -2.109375 7.226562 -2.210938 7.5625 -2.421875 C 7.90625 -2.628906 8.164062 -2.898438 8.34375 -3.234375 C 8.53125 -3.566406 8.65625 -3.925781 8.71875 -4.3125 C 8.789062 -4.695312 8.828125 -5.0625 8.828125 -5.40625 C 8.828125 -5.757812 8.789062 -6.125 8.71875 -6.5 C 8.65625 -6.882812 8.53125 -7.242188 8.34375 -7.578125 C 8.164062 -7.910156 7.90625 -8.179688 7.5625 -8.390625 C 7.226562 -8.597656 6.785156 -8.703125 6.234375 -8.703125 Z M 6.234375 -8.703125 "/></g></g></g><g fill="#041632" fill-opacity="1"><g transform="translate(300.526835, 297.249472)"><g><path d="M 4.046875 -14.59375 L 4.046875 0 L 1.203125 0 L 1.203125 -14.59375 Z M 4.046875 -14.59375 "/></g></g></g><g fill="#235476" fill-opacity="1"><g transform="translate(66.742307, 271.70828)"><g><path d="M 3.875 -56.0625 L 33.84375 -56.0625 L 33.84375 -47.515625 L 14.515625 -47.515625 L 14.515625 -34.46875 L 32.140625 -34.46875 L 32.140625 -25.9375 L 14.515625 -25.9375 L 14.515625 -8.546875 L 33.84375 -8.546875 L 33.84375 0 L 3.875 0 Z M 3.875 -56.0625 "/></g></g></g><g fill="#235476" fill-opacity="1"><g transform="translate(103.384146, 271.70828)"><g><path d="M 1.703125 -56.0625 L 14.046875 -56.0625 L 21.28125 -37.8125 L 28.875 -56.0625 L 40.84375 -56.0625 L 27.015625 -28.796875 L 41.3125 0 L 29.421875 0 L 21.28125 -20.65625 L 12.8125 0 L 1.171875 0 L 14.671875 -28.796875 Z M 1.703125 -56.0625 "/></g></g></g><g fill="#235476" fill-opacity="1"><g transform="translate(146.003566, 271.70828)"><g><path d="M 14.515625 -22.828125 L 14.515625 0 L 3.875 0 L 3.875 -56.0625 L 23.984375 -56.0625 C 27.046875 -56.0625 29.675781 -55.320312 31.875 -53.84375 C 34.070312 -52.363281 35.765625 -50.378906 36.953125 -47.890625 C 38.148438 -45.410156 38.75 -42.671875 38.75 -39.671875 C 38.75 -36.617188 38.140625 -33.8125 36.921875 -31.25 C 35.703125 -28.6875 33.976562 -26.640625 31.75 -25.109375 C 29.53125 -23.585938 26.890625 -22.828125 23.828125 -22.828125 Z M 14.515625 -47.75 L 14.515625 -31.140625 L 19.875 -31.140625 C 22.5625 -31.140625 24.566406 -31.863281 25.890625 -33.3125 C 27.210938 -34.757812 27.875 -36.828125 27.875 -39.515625 C 27.875 -42.160156 27.210938 -44.191406 25.890625 -45.609375 C 24.566406 -47.035156 22.5625 -47.75 19.875 -47.75 Z M 14.515625 -47.75 "/></g></g></g><g fill="#235476" fill-opacity="1"><g transform="translate(188.23484, 271.70828)"><g><path d="M 3.875 -56.0625 L 33.84375 -56.0625 L 33.84375 -47.515625 L 14.515625 -47.515625 L 14.515625 -34.46875 L 32.140625 -34.46875 L 32.140625 -25.9375 L 14.515625 -25.9375 L 14.515625 -8.546875 L 33.84375 -8.546875 L 33.84375 0 L 3.875 0 Z M 3.875 -56.0625 "/></g></g></g><g fill="#235476" fill-opacity="1"><g transform="translate(224.876679, 271.70828)"><g><path d="M 14.515625 -23.765625 L 14.515625 0 L 3.875 0 L 3.875 -56.0625 L 26.015625 -56.0625 C 28.910156 -56.0625 31.40625 -55.410156 33.5 -54.109375 C 35.59375 -52.816406 37.207031 -51.070312 38.34375 -48.875 C 39.488281 -46.675781 40.0625 -44.226562 40.0625 -41.53125 C 40.0625 -37.394531 39.269531 -34.238281 37.6875 -32.0625 C 36.113281 -29.882812 34.082031 -28.617188 31.59375 -28.265625 C 33.664062 -27.847656 35.242188 -27.109375 36.328125 -26.046875 C 37.421875 -24.984375 38.1875 -23.753906 38.625 -22.359375 C 39.0625 -20.960938 39.28125 -19.59375 39.28125 -18.25 L 39.28125 -11.109375 C 39.28125 -8.566406 39.394531 -6.363281 39.625 -4.5 C 39.863281 -2.632812 40.601562 -1.703125 41.84375 -1.703125 L 41.84375 0 L 31.21875 0 C 30.175781 -0.875 29.488281 -2.175781 29.15625 -3.90625 C 28.820312 -5.644531 28.65625 -7.394531 28.65625 -9.15625 L 28.65625 -15.609375 C 28.65625 -17.722656 28.203125 -19.609375 27.296875 -21.265625 C 26.390625 -22.929688 24.71875 -23.765625 22.28125 -23.765625 Z M 14.515625 -47.75 L 14.515625 -31.75 L 21.65625 -31.75 C 22.957031 -31.75 24.175781 -31.992188 25.3125 -32.484375 C 26.445312 -32.984375 27.375 -33.828125 28.09375 -35.015625 C 28.820312 -36.203125 29.1875 -37.859375 29.1875 -39.984375 C 29.1875 -43.035156 28.488281 -45.09375 27.09375 -46.15625 C 25.695312 -47.21875 23.804688 -47.75 21.421875 -47.75 Z M 14.515625 -47.75 "/></g></g></g><g fill="#235476" fill-opacity="1"><g transform="translate(268.427666, 271.70828)"><g><path d="M 25.234375 -47.515625 L 25.234375 0 L 14.59375 0 L 14.59375 -47.515625 L 1.390625 -47.515625 L 1.390625 -56.0625 L 38.4375 -56.0625 L 38.4375 -47.515625 Z M 25.234375 -47.515625 "/></g></g></g></svg>